<svg xmlns="http://www.w3.org/2000/svg" width="667" height="667" fill="none" viewBox="0 0 667 667"><circle cx="333.5" cy="333.5" r="333.5" fill="#217AE2"/><path fill="#32ECB4" d="M334.183 667C517.993 667 667.001 517.687 667.001 333.5C667.001 149.313 517.993 0 334.183 0V667Z"/><path fill="#32ECB4" d="M123.322 178.632C178.885 123.069 268.964 123.069 324.527 178.632L332.136 186.241C370.516 313.61 366.976 448.37 332.136 588.653L231.536 488.047L123.327 379.838C67.7641 324.275 67.7641 234.195 123.322 178.632Z"/><path fill="#217AE2" d="M540.951 178.632C485.388 123.069 395.308 123.069 339.745 178.632L332.136 186.241V588.653L432.736 488.053L540.945 379.844C596.508 324.275 596.508 234.195 540.951 178.632Z"/></svg>